<?xml version="1.0" encoding="UTF-8"?>
<!DOCTYPE svg PUBLIC "-//W3C//DTD SVG 1.1//EN" "http://www.w3.org/Graphics/SVG/1.1/DTD/svg11.dtd">
<!-- Creator: CorelDRAW X7 -->
<svg xmlns="http://www.w3.org/2000/svg" xml:space="preserve" width="784px" height="500px" version="1.1" style="shape-rendering:geometricPrecision; text-rendering:geometricPrecision; image-rendering:optimizeQuality; fill-rule:evenodd; clip-rule:evenodd"
viewBox="0 0 446 285"
 xmlns:xlink="http://www.w3.org/1999/xlink">
 <defs>
  <style type="text/css">
   <![CDATA[
    .fil1 {fill:#466619}
    .fil0 {fill:#648E2E}
    .fil2 {fill:#7E3B15}
    .fil4 {fill:#CCCCCC}
    .fil3 {fill:white}
    .fil6 {fill:black;fill-rule:nonzero}
    .fil5 {fill:#648E2E;fill-rule:nonzero}
   ]]>
  </style>
    <clipPath id="id0">
     <path d="M19 10l408 0 -19 275 -408 0 19 -275z"/>
    </clipPath>
 </defs>
 <g id="Layer_x0020_1">
  <metadata id="CorelCorpID_0Corel-Layer"/>
  <g id="_625492832">
   <g style="clip-path:url(#id0)">
    <image x="0" y="10" width="427" height="275" xlink:href="CocoPrime_Images\CocoPrime_ImgID1.png"/>
   </g>
  </g>
  <g id="_625493096">
   <g>
    <path class="fil0" d="M292 60c1,2 3,4 4,5 0,0 0,0 0,0 0,0 0,1 0,1 1,0 1,0 1,0 0,0 0,0 0,0 0,0 0,1 0,1 1,0 1,1 1,1l1 -1 0 0 0 0 1 -1 0 0 0 0 0 0 0 -1 1 -1 0 0c0,0 0,0 0,1 0,0 0,0 1,0 0,0 0,0 0,0 0,0 0,0 0,0 0,0 0,0 0,0 0,0 0,1 0,1 0,0 0,0 0,0 1,0 1,1 1,1 0,0 0,0 1,1 0,0 1,1 2,2 13,19 50,77 33,139 8,-21 11,-47 5,-72 -5,-27 -18,-49 -35,-66 2,1 5,2 8,4 -2,-3 -4,-6 -6,-8 0,-1 0,-1 0,-1 -1,-1 -2,-3 -3,-4 -1,-1 -1,-1 -2,-2 0,0 0,0 0,0 -1,-2 -2,-3 -3,-4 0,0 0,0 0,0 -1,-1 -2,-2 -3,-3 0,0 0,0 0,0 0,-1 0,-1 -1,-1 0,0 0,-1 -1,-1 0,-1 0,-1 0,-1 -1,0 -1,-1 -1,-1l-1 2 0 0 -1 2 0 1 -1 1 -1 3 0 0 0 1 -1 1z"/>
    <path class="fil1" d="M253 267c7,1 14,0 22,-1 29,-6 52,-28 64,-57 17,-62 -20,-120 -33,-139 -1,-1 -2,-2 -2,-2 -1,-1 -1,-1 -1,-1 0,0 0,-1 -1,-1 0,0 0,0 0,0 0,0 0,-1 0,-1 0,0 0,0 0,0 0,0 0,0 0,0 0,0 0,0 0,0 -1,0 -1,0 -1,0 0,-1 0,-1 0,-1l0 0 -1 1 0 1 0 0 0 0 0 0 -1 1 0 0 0 0 -1 1c0,0 0,0 0,0 1,1 1,1 1,1 0,0 0,0 0,1 1,0 1,1 2,1 0,1 1,2 2,4 0,1 1,2 2,3 0,0 0,1 1,1 26,45 19,87 3,116 -6,10 -14,23 -22,33 0,0 0,0 0,0 -4,5 -7,10 -10,13 -2,3 -15,17 -24,26z"/>
    <path class="fil0" d="M216 37c0,0 0,0 0,0 5,-2 46,-12 87,26l1 -1 10 -6c0,0 -44,-72 -98,-19z"/>
    <path class="fil1" d="M216 37c5,-2 46,-12 87,26l1 -1c-5,-8 -42,-59 -88,-25z"/>
    <path class="fil0" d="M282 172c0,0 0,0 0,-1 -1,-5 -7,-55 27,-95l0 -2 -5 -12c0,0 -63,37 -22,110z"/>
    <path class="fil0" d="M301 72l3 7c0,0 1,0 1,0 1,0 1,0 1,0 0,0 1,0 1,0 2,0 4,0 5,0 1,0 2,0 3,0 3,0 6,1 9,1 0,0 0,0 0,0 38,7 60,36 63,39 0,1 0,1 0,1 -8,-32 -23,-47 -38,-54 -7,-4 -15,-5 -21,-6 -5,0 -10,0 -14,1 -1,0 -2,0 -3,0 -1,0 -2,1 -3,1 0,0 -1,0 -1,0 -1,0 -2,1 -3,1 0,0 0,0 0,0 -1,0 -2,0 -3,1 -1,0 -1,0 -2,0 -1,1 -1,1 -1,1l1 2 2 5z"/>
    <path class="fil1" d="M303 77l1 2c0,0 1,0 1,0 1,0 1,0 1,0 0,0 1,0 1,0 2,0 4,0 5,0 1,0 2,0 3,0 3,0 6,1 9,1 0,0 0,0 0,0 38,7 60,36 63,39 -18,-45 -50,-48 -70,-45 0,0 0,0 -1,0 -2,0 -5,1 -7,1 0,0 0,0 0,0 0,0 -1,0 -1,0 0,0 0,1 0,1 0,0 0,0 -1,0 0,0 0,0 0,0 0,0 -1,0 -1,0 0,0 0,0 0,0 0,0 0,0 0,0 0,0 0,0 0,0 0,0 0,0 -1,0 0,0 0,0 0,1 0,0 0,0 -1,0 0,0 0,0 0,0 0,0 -1,0 -1,0 0,0 0,0 0,0z"/>
    <path class="fil0" d="M241 161c0,0 0,0 1,0 1,-6 13,-60 66,-83l-1 -2 0 -15c0,0 -83,4 -66,100z"/>
    <path class="fil0" d="M407 79c0,0 0,0 -1,0 -4,-3 -49,-29 -100,0l-1 -2 -10 -11c0,0 58,-64 112,13z"/>
    <path class="fil1" d="M406 79c-4,-3 -49,-29 -100,0l-1 -2c7,-7 54,-52 101,2z"/>
    <path class="fil0" d="M207 91c0,0 0,0 0,0 4,-4 43,-35 99,-13l1 -2 7 -12c0,0 -70,-57 -107,27z"/>
    <path class="fil1" d="M207 91c4,-4 43,-35 99,-13l1 -2c-9,-7 -64,-45 -100,15z"/>
    <path class="fil0" d="M382 4c0,0 0,0 -1,0 -5,1 -51,12 -74,73l-2 0 -13 -2c0,0 8,-96 90,-71z"/>
    <path class="fil1" d="M381 4c-5,1 -51,12 -74,73l-2 0c2,-12 13,-83 76,-73z"/>
    <path class="fil1" d="M280 162c-1,-5 -7,-55 28,-95l-1 -2c-8,5 -53,37 -27,97z"/>
    <path class="fil1" d="M240 152c1,-6 13,-60 66,-83l0 -2c-10,1 -72,10 -66,85z"/>
   </g>
   <g>
    <path class="fil2" d="M176 244c-2,1 -5,1 -8,2 -5,1 -42,12 -39,19 1,2 4,3 6,4 13,3 27,-2 41,-3 33,-3 64,14 96,15 3,0 7,-1 6,-4 0,-2 -1,-3 -2,-5 0,-1 1,-4 2,-5 2,-1 4,-1 6,-1 19,-2 38,2 57,1 3,0 7,-1 7,-4 1,-4 -3,-6 -7,-7 -22,-5 -44,-11 -67,-16 -5,-1 -11,-2 -16,-3 -5,0 -11,0 -16,1 -15,1 -31,3 -46,4 -7,1 -13,1 -20,2z"/>
    <path class="fil2" d="M49 247c-3,0 -5,1 -8,1 -5,2 -43,13 -39,20 1,2 3,3 5,3 14,3 28,-2 42,-3 32,-3 63,14 96,15 2,0 6,-1 6,-3 0,-2 -2,-3 -2,-5 -1,-2 0,-4 2,-5 2,-1 4,-2 6,-2 18,-2 37,2 56,1 3,0 7,-1 8,-4 0,-3 -4,-5 -7,-6 -22,-6 -45,-11 -67,-17 -6,-1 -11,-2 -17,-2 -5,-1 -10,0 -15,0 -16,2 -31,3 -47,4 -6,1 -13,2 -19,3z"/>
   </g>
   <g>
    <g>
     <path class="fil2" d="M137 148c-8,11 -23,16 -36,14 -1,-1 -2,-1 -3,-1 -5,-2 -10,-5 -14,-9 -7,-6 -11,-15 -12,-24 -1,-8 1,-17 6,-23 5,-6 13,-9 20,-9 9,0 18,4 25,9 8,6 14,14 17,22 2,8 1,16 -3,21z"/>
     <path class="fil2" d="M68 144c-8,6 -21,6 -33,0 -8,-4 -14,-9 -17,-15 -3,-6 -4,-12 -1,-17 0,-1 1,-2 1,-2 3,-4 8,-6 13,-7 1,0 1,0 1,0 7,-1 14,1 21,4 3,1 5,3 7,4 -2,-2 -4,-4 -7,-6 -8,-5 -17,-9 -25,-9 -8,0 -15,3 -20,9 -5,6 -7,15 -6,23 0,9 5,18 11,24 4,4 9,7 15,9 1,0 2,0 3,1 13,2 28,-3 36,-14 2,-2 3,-4 3,-7 0,1 -1,2 -2,3z"/>
     <path class="fil2" d="M278 148c-9,11 -23,16 -37,14 -1,-1 -1,-1 -2,-1 -6,-2 -11,-5 -15,-9 -6,-6 -11,-15 -12,-24 0,-8 2,-17 7,-23 5,-6 12,-9 20,-9 8,0 17,4 25,9 8,6 13,14 16,22 3,8 2,16 -2,21z"/>
     <path class="fil2" d="M208 144c-7,6 -21,6 -33,0 -7,-4 -13,-9 -17,-15 -3,-6 -3,-12 -1,-17 1,-1 1,-2 2,-2 2,-4 7,-6 13,-7 0,0 0,0 0,0 7,-1 15,1 22,4 2,1 4,3 6,4 -2,-2 -4,-4 -6,-6 -8,-5 -17,-9 -26,-9 -7,0 -15,3 -19,9 -6,6 -8,15 -7,23 1,9 5,18 12,24 4,4 9,7 14,9 1,0 2,0 3,1 14,2 28,-3 36,-14 2,-2 3,-4 4,-7 -1,1 -2,2 -3,3z"/>
    </g>
    <g>
     <path class="fil3" d="M136 143c-1,2 -3,3 -5,4 -8,5 -21,3 -33,-5 -6,-5 -11,-12 -13,-18 -3,-7 -2,-13 1,-17 1,-1 1,-2 2,-2 3,-4 8,-5 14,-5 0,0 1,0 1,0 7,0 14,3 20,8 14,10 20,26 13,35z"/>
     <path class="fil3" d="M278 143c-1,2 -3,3 -5,4 -8,5 -21,3 -33,-5 -6,-5 -11,-12 -13,-18 -3,-7 -2,-13 1,-17 1,-1 1,-2 2,-2 3,-4 8,-5 14,-5 0,0 1,0 1,0 7,0 14,3 20,8 14,10 20,26 13,35z"/>
    </g>
    <g>
     <path class="fil4" d="M91 113c3,-4 7,-6 13,-5 0,0 0,0 0,0 6,0 12,2 17,6 7,6 12,13 12,19 1,-7 -4,-15 -12,-21 -5,-4 -11,-7 -17,-7 0,0 0,0 0,0 -6,0 -11,2 -13,5 -2,3 -3,6 -3,10 1,-3 1,-5 3,-7z"/>
     <path class="fil4" d="M233 113c3,-4 7,-6 13,-5 0,0 0,0 0,0 6,0 12,2 17,6 7,6 12,13 12,19 1,-7 -4,-15 -12,-21 -5,-4 -11,-7 -17,-7 0,0 0,0 0,0 -6,0 -11,2 -13,5 -2,3 -3,6 -3,10 1,-3 1,-5 3,-7z"/>
    </g>
   </g>
   <path class="fil5" d="M14 182l0 51 -12 0 0 -51c0,-3 1,-6 4,-8 2,-2 5,-2 7,-2l17 0c7,0 13,2 18,6 4,4 5,9 5,14l0 3c0,7 -2,12 -8,16 -4,3 -9,4 -15,4l-15 0 6 -10 9 0c5,0 8,-2 10,-5 1,-2 1,-4 1,-5l0 -3c0,-5 -2,-8 -6,-9 -2,-1 -3,-1 -5,-1l-16 0zm60 0l0 51 -12 0 0 -51c0,-3 2,-6 5,-8 2,-2 4,-2 7,-2l16 0c8,0 14,2 18,6 4,4 6,9 6,14l0 3c0,7 -3,12 -8,16 -2,1 -5,2 -7,3l16 19 -15 0 -15 -18 -10 0 7 -10 8 0c5,0 9,-2 11,-5 0,-2 1,-4 1,-5l0 -3c0,-5 -2,-8 -7,-9 -1,-1 -3,-1 -5,-1l-16 0zm51 -10l12 0 0 61 -12 0 0 -61zm80 12l-14 40 -13 0 -13 -40 -5 49 -13 0 5 -51c1,-5 3,-8 7,-10 1,-1 3,-1 5,-1 4,0 6,2 8,4 1,1 1,2 2,3l11 33 11 -33c2,-4 4,-6 8,-7 0,0 1,0 2,0 4,0 7,2 9,5 1,1 2,3 2,6l6 51 -13 0 -5 -49zm39 24l0 14 32 0 6 11 -39 0c-3,0 -7,-2 -9,-5 -1,-2 -2,-4 -2,-6l0 -40c0,-3 1,-6 4,-8 3,-2 5,-2 7,-2l39 0 -6 10 -32 0 0 15 29 0 0 11 -29 0z"/>
  </g>
  <polygon class="fil6" points="417,22 417,6 412,6 412,3 426,3 426,6 421,6 421,22 "/>
  <polygon id="1" class="fil6" points="428,22 428,3 434,3 437,16 441,3 446,3 446,22 443,22 443,7 439,22 435,22 432,7 432,22 "/>
 </g>
</svg>
